<?xml version="1.0" encoding="UTF-8"?>
<svg width="272px" height="151px" viewBox="0 0 272 151" version="1.1" xmlns="http://www.w3.org/2000/svg" xmlns:xlink="http://www.w3.org/1999/xlink">
    <!-- Generator: Sketch 49.3 (51167) - http://www.bohemiancoding.com/sketch -->
    <title>Group 5</title>
    <desc>Created with Sketch.</desc>
    <defs>
        <path d="M3,0 L269,0 C270.656854,-3.04359188e-16 272,1.34314575 272,3 L272,147.391534 C272,149.048389 270.656854,150.391534 269,150.391534 L3,150.391534 C1.34314575,150.391534 1.52104299e-14,149.048389 -4.4408921e-16,147.391534 L-4.4408921e-16,3 C-6.46995335e-16,1.34314575 1.34314575,3.04359188e-16 3,0 Z" id="path-1"></path>
        <mask id="mask-2" maskContentUnits="userSpaceOnUse" maskUnits="objectBoundingBox" x="0" y="0" width="272" height="150.391534" fill="white">
            <use xlink:href="#path-1"></use>
        </mask>
    </defs>
    <g id="Thông-tin-tài-khoản" stroke="none" stroke-width="1" fill="none" fill-rule="evenodd">
        <g id="Some-status-Copy-5" transform="translate(-402.000000, -299.000000)">
            <g id="Group-5" transform="translate(402.000000, 299.000000)">
                <use id="Rectangle-3" stroke="#979797" mask="url(#mask-2)" stroke-width="2" fill="#FFFFFF" stroke-dasharray="1,1,8" xlink:href="#path-1"></use>
                <rect id="Rectangle-3-Copy-2" fill="#EAEAEA" x="15.8306878" y="45.3333333" width="73.3968254" height="91.3862434" rx="10"></rect>
                <rect id="Rectangle-3-Copy-3" fill="#EAEAEA" x="103.619048" y="45.3333333" width="143.195767" height="23.026455" rx="10"></rect>
                <rect id="Rectangle-3-Copy-4" fill="#EAEAEA" x="104.338624" y="77.7142857" width="96.4232804" height="7.1957672" rx="3.5978836"></rect>
                <rect id="Rectangle-3-Copy-5" fill="#EAEAEA" x="104.338624" y="91.3862434" width="130.243386" height="7.1957672" rx="3.5978836"></rect>
                <rect id="Rectangle-3-Copy-7" fill="#EAEAEA" x="52.5291005" y="17.2698413" width="176.296296" height="7.1957672" rx="3.5978836"></rect>
                <rect id="Rectangle-3-Copy-6" fill="#EAEAEA" x="104.338624" y="108.656085" width="96.4232804" height="7.1957672" rx="3.5978836"></rect>
            </g>
        </g>
    </g>
</svg>