<svg width="512" height="512" xmlns="http://www.w3.org/2000/svg">

 <g>
  <title>background</title>
  <rect fill="none" id="canvas_background" height="402" width="582" y="-1" x="-1"/>
 </g>
 <g>
  <title>Layer 1</title>
  <path fill="#ffffff" id="XMLID_5_" d="m113.781126,214.812583c0,-9.5 -7.6,-17.4 -17.1,-17.4c-0.1,0 -0.1,0 -0.2,0c-51.6,0 -93.5,41.9 -93.5,93.5s41.9,93.5 93.5,93.5c0.1,0 0.1,0 0.2,0c9.5,0 17.1,-7.9 17.1,-17.4l0,-152.2z"/>
  <path fill="#ffffff" id="XMLID_4_" d="m395.2,213.806292c0,-9.5 7.6,-17.4 17.1,-17.4c0.1,0 0.1,0 0.2,0c51.6,0 93.5,41.9 93.5,93.5s-41.9,93.5 -93.5,93.5c-0.1,0 -0.1,0 -0.2,0c-9.5,0 -17.1,-7.9 -17.1,-17.4l0,-152.2z"/>
  <path fill="#ffffff" id="XMLID_3_" d="m460.7,272.106292c-9.6,0 -17.4,-8.1 -17.4,-18.2c0,-107.7 -83.9,-181.3 -187.1,-181.3s-187.1,73.7 -187.1,181.3c0,10 -7.8,18.2 -17.4,18.2s-17.4,-8.1 -17.4,-18.2c0,-127.7 99.6,-231.6 221.9,-231.6s221.9,103.9 221.9,231.6c0,10.1 -7.8,18.2 -17.4,18.2z"/>
  <path fill="#ffffff" id="XMLID_2_" d="m300.5,465.9c-5.8,0 -11.9,-0.3 -18.2,-0.8l2,-23.2c112.2,9.8 137,-83.3 138,-87.3l22.6,5.6c-0.3,1.2 -7.5,29.8 -31.2,56.9c-19.9,23 -55.3,48.8 -113.2,48.8z"/>
  <circle fill="#ffffff" r="36.4" id="XMLID_1_" cy="454.3" cx="280.2"/>
 </g>
</svg>